<svg width="1024" height="1024" viewBox="0 0 1024 1024" fill="none" xmlns="http://www.w3.org/2000/svg">
<g clip-path="url(#clip0_5_3)">
<path d="M782.625 376.333H692.25V285.889H782.625M782.625 557.222H692.25V466.778H782.625M782.625 738.111H692.25V647.667H782.625M330.75 376.333H240.375V285.889H330.75M330.75 557.222H240.375V466.778H330.75M330.75 738.111H240.375V647.667H330.75M784.625 105C783.52 105 782.625 105.895 782.625 107V193.444C782.625 194.549 781.73 195.444 780.625 195.444H694.25C693.145 195.444 692.25 194.549 692.25 193.444V107C692.25 105.895 691.355 105 690.25 105H332.75C331.645 105 330.75 105.895 330.75 107V193.444C330.75 194.549 329.855 195.444 328.75 195.444H242.375C241.27 195.444 240.375 194.549 240.375 193.444V107C240.375 105.895 239.48 105 238.375 105H165C156.716 105 150 111.716 150 120V904C150 912.284 156.716 919 165 919H238.375C239.48 919 240.375 918.105 240.375 917V830.556C240.375 829.451 241.27 828.556 242.375 828.556H328.75C329.855 828.556 330.75 829.451 330.75 830.556V917C330.75 918.105 331.645 919 332.75 919H690.25C691.355 919 692.25 918.105 692.25 917V830.556C692.25 829.451 693.145 828.556 694.25 828.556H780.625C781.73 828.556 782.625 829.451 782.625 830.556V917C782.625 918.105 783.52 919 784.625 919H858C866.284 919 873 912.284 873 904V120C873 111.716 866.284 105 858 105H784.625Z" fill="url(#paint0_linear_5_3)"/>
<path d="M511.5 705C506.402 705 501.216 704.09 495.943 702.27C490.67 700.45 486.023 697.538 482.003 693.535L444.311 659.139C405.71 623.833 370.837 588.803 339.693 554.051C308.55 519.298 292.985 480.985 293 439.113C293 404.899 304.471 376.327 327.414 353.396C350.356 330.465 378.943 319 413.175 319C432.476 319 450.684 323.091 467.8 331.273C484.916 339.456 499.483 350.652 511.5 364.861C523.518 350.666 538.084 339.477 555.2 331.295C572.316 323.113 590.524 319.015 609.825 319C644.057 319 672.644 330.465 695.586 353.396C718.529 376.327 730 404.899 730 439.113C730 480.971 714.523 519.371 683.569 554.313C652.615 589.255 617.473 624.379 578.143 659.685L540.998 693.535C536.992 697.538 532.352 700.45 527.079 702.27C521.806 704.09 516.613 705 511.5 705Z" fill="url(#paint1_linear_5_3)"/>
</g>
<defs>
<linearGradient id="paint0_linear_5_3" x1="150" y1="66.7087" x2="901.569" y2="919.418" gradientUnits="userSpaceOnUse">
<stop offset="0.0578519" stop-color="#1C1C1C"/>
<stop offset="0.5" stop-color="#121212"/>
<stop offset="0.938819"/>
</linearGradient>
<linearGradient id="paint1_linear_5_3" x1="303.493" y1="303.585" x2="538.317" y2="683.629" gradientUnits="userSpaceOnUse">
<stop offset="0.0769231" stop-color="#FF7700"/>
<stop offset="0.527582" stop-color="#FF6200"/>
<stop offset="1" stop-color="#A94100"/>
</linearGradient>
<clipPath id="clip0_5_3">
<rect width="1024" height="1024" fill="white"/>
</clipPath>
</defs>
</svg>
